<svg version="1.2" xmlns="http://www.w3.org/2000/svg" viewBox="0 0 800 800" width="800" height="800"><style>.a{fill:#fff}.b{fill:none;stroke:#c4c1cd;stroke-miterlimit:10;stroke-width:20}.c{fill:#3a3159}</style><path class="a" d="m366 760.2c-10.1-6.5-20.1-12.9-30.2-19.4l-24.5-34.1-23.5-20.7-26.3-22.9-25.7-25.1-25.4-23.8-24.6-26.6-25.6-21-22.4-34.3-25.3-14.5-25-33.3-24.8-18-26.4-26.4-17.4-33.9-3.9-7.9 4.7-7.5 17.1-27.1 21.1-29.7 32.7-24.4 21.9-23.4 26.9-24.4 26-23.6 23.7-24.5 23.8-25.3 19.6-27.2 34.1-23.6 14.9-25.5 34-24.5 20.1-23.9 26.1-25.4 30.7-18.3 8.7-5 8.2 5.7 25.8 17.8 29.4 20.1 26.9 26.9 25.4 23.1 24.6 27.1 25.1 22.1 22.8 32.2 22.6 23.3 25.2 22.9 25.4 25.1 26.8 19.8 25 30.5 23.4 23.9 26.4 20.2 5 6.8 12.1 31 2.7 6.9-3.6 6.4-15.4 27.9-23.5 29.8-29.8 24.6-23.1 23.9-22.7 25.7-25.8 25.5-29.4 22.8-21.1 24.3-21 27.1-33.6 23.3-21.5 23.1-26.4 24.6-20 26.1-29.5 24.9-29.4 17-8.3 4.7-8.1-5.2c-8.5-5.6-17.1-11.2-25.7-16.7z"/><path class="b" d="m366 760.2c-10.1-6.5-20.1-12.9-30.2-19.4l-24.5-34.1-23.5-20.7-26.3-22.9-25.7-25.1-25.4-23.8-24.6-26.6-25.6-21-22.4-34.3-25.3-14.5-25-33.3-24.8-18-26.4-26.4-17.4-33.9-3.9-7.9 4.7-7.5 17.1-27.1 21.1-29.7 32.7-24.4 21.9-23.4 26.9-24.4 26-23.6 23.7-24.5 23.8-25.3 19.6-27.2 34.1-23.6 14.9-25.5 34-24.5 20.1-23.9 26.1-25.4 30.7-18.3 8.7-5 8.2 5.7 25.8 17.8 29.4 20.1 26.9 26.9 25.4 23.1 24.6 27.1 25.1 22.1 22.8 32.2 22.6 23.3 25.2 22.9 25.4 25.1 26.8 19.8 25 30.5 23.4 23.9 26.4 20.2 5 6.8 12.1 31 2.7 6.9-3.6 6.4-15.4 27.9-23.5 29.8-29.8 24.6-23.1 23.9-22.7 25.7-25.8 25.5-29.4 22.8-21.1 24.3-21 27.1-33.6 23.3-21.5 23.1-26.4 24.6-20 26.1-29.5 24.9-29.4 17-8.3 4.7-8.1-5.2c-8.5-5.6-17.1-11.2-25.7-16.7z"/><path class="c" d="m593.3 368.4l-13.6-24.7-4.4-30.7-5.8-30.4-28.3-31.9-27.3-33.3-5.8-5.3-45.1-19.6-30.5-1.6-32.7-1.4-32.5 5.1-32.6-3-48.1 26.1-28.9 32.1-28.1 32.7-3.1 31-5.1 31.8-18.4 26.4-13.9 20.1 3.8 40.1 9.5 39.1 11.2 16.1 26.8 18 26.6 18.8 14.2 28.7 11.7 42.1 38.1 18.2 6.7-37.9 24.5 7.1 9.6 29.3 10.1 31.9 15.5-1.5 4.7-0.7 13.5 0.8 12-30.5 6.5-22.7 24.8-6.1 9.3 30.9 35.6-18.1 12.4-43.5 16.7-27.8 25.6-20 27.4-17 12.1-15.7 6.4-39.8 5.1-39.7zm-258.7 101.9l-50.7-25.7-18.8-38 13.3-35 63.5 11.6 29.2 53.4zm71.9 58.5l-6.7 4.1-6.8-4.1-14.7-40.6 21.5-36.5 21.3 36.5zm109.1-84.1l-10 5.1c0 0-5.9 2.8-9.5 4.8-3.7 1.9-11.6 5.9-11.6 5.9l-19.6 9.9-36.4-33.7 29.2-53.5 63.5-11.5 13.2 35"/></svg>