<svg xmlns="http://www.w3.org/2000/svg" width="100%" height="auto" viewBox="0 0 201 212" version="1.1" preserveAspectRatio="xMidYMid meet" style="max-width: 100%; max-height: 70vh;">
	<path d="M 91.917 25.271 C 87.164 27.622, 83.751 31.855, 81.738 37.893 C 80.470 41.700, 79.676 42.513, 75.795 43.987 C 68.582 46.724, 62.581 51.430, 59.932 56.422 C 56.939 62.065, 57.642 63.514, 64.503 65.834 C 71.587 68.229, 81.301 75.311, 83.326 79.556 C 85.262 83.618, 85.502 89.805, 83.861 93.405 C 83.235 94.779, 81.145 96.652, 79.218 97.567 C 76.234 98.983, 75.101 99.048, 71.606 98.004 C 61.520 94.991, 57.132 91.166, 51.925 80.851 C 48.517 74.100, 46.643 73.542, 39.302 77.096 C 34.761 79.294, 30.735 84.786, 29.475 90.500 C 29.112 92.150, 28.626 94.207, 28.397 95.070 C 28.167 95.934, 25.523 97.659, 22.521 98.903 C 16.747 101.296, 11.444 106.382, 10.404 110.525 C 8.657 117.488, 12.823 124.143, 21.823 128.766 C 26.548 131.192, 27.337 132.065, 28.842 136.521 C 31.247 143.642, 34.097 147.190, 39.984 150.395 C 46.396 153.885, 49.128 153.379, 51.517 148.261 C 56.297 138.016, 65.405 129.227, 72.643 127.874 C 84.066 125.740, 87.174 134.225, 79.318 146.096 C 76.984 149.622, 64.640 159, 62.332 159 C 61.770 159, 60.477 159.920, 59.460 161.045 C 57.805 162.873, 57.739 163.576, 58.839 167.689 C 61.175 176.421, 66.948 181.346, 76.361 182.636 C 80.494 183.203, 80.846 183.511, 82.897 188.367 C 86.396 196.654, 90.374 200.186, 97.485 201.317 C 105.271 202.555, 114.120 195.566, 115.911 186.764 C 116.533 183.708, 116.892 183.465, 121.537 182.956 C 129.533 182.078, 134.782 178.423, 138.443 171.184 C 141.630 164.881, 140.522 163.003, 130.781 158.206 C 119.315 152.559, 115.050 147.647, 114.285 139.205 C 113.786 133.699, 113.922 133.206, 116.511 131.170 C 124.555 124.843, 140.272 132.341, 145.499 145 C 148.241 151.639, 149.118 152.325, 153.854 151.525 C 162.016 150.146, 169.124 142.175, 170.666 132.671 C 171.146 129.715, 171.717 129.088, 174.393 128.586 C 178.570 127.802, 184.899 122.487, 186.653 118.288 C 189.711 110.970, 183.673 102.522, 172.826 98.943 C 169.356 97.797, 168.985 97.294, 167.836 92.156 C 166.406 85.768, 162.984 81.353, 156.530 77.571 C 150.246 73.888, 147.895 74.194, 145.687 78.985 C 143.126 84.541, 130.858 96.669, 126.612 97.841 C 117.117 100.463, 109.908 92.869, 113 83.501 C 114.516 78.905, 124.680 69.558, 131.386 66.593 C 136.703 64.241, 137 63.920, 137 60.515 C 137 51.682, 126.649 41, 118.088 41 C 116.642 41, 115.400 39.413, 113.455 35.080 C 109.987 27.351, 107.467 25.111, 101.109 24.106 C 96.837 23.431, 95.223 23.636, 91.917 25.271" stroke="none" fill="#4f311d" fill-rule="evenodd"/>
</svg>