<svg version="1.2" xmlns="http://www.w3.org/2000/svg" viewBox="0 0 13 800" width="13" height="800"><style>.a{fill:#fff}</style><path class="a" d="m7.5 800c-0.8-0.2-1.3-1-2.2-1-0.2 0-0.2-0.2-0.2-0.4-0.1-0.1-0.1-0.2-0.2-0.2-0.8 0.3-0.6-0.3-0.6-0.6 0-0.4 0-0.9 0.3-1.4q0.2-0.5-0.2-0.8c-0.4-0.4-0.4-0.7-0.2-1.1 0.2-0.4 0.6-0.8 0.4-1.2-0.4-0.7-0.3-1.5-0.8-2.2-0.2-0.2 0-0.4 0.1-0.5 0.7-0.4 0.4-0.8 0-1.1-0.4-0.3-0.4-0.6-0.1-1.1 0.2-0.2 0.5-0.5 0.4-0.9-0.4-0.8 0.3-1.7-0.4-2.5-0.1-0.1 0-0.3 0.1-0.5 0-0.1 0.1-0.3 0-0.4-0.4-0.4-0.2-0.8-0.2-1.3 0-0.4-0.1-0.7-0.2-1.1-0.3-0.8-0.6-1.6 0.2-2.3 0.2-0.1 0.1-0.3 0.1-0.5 0.1-1.2-0.2-2.3-0.2-3.4 0.1-0.8 0.3-1.6-0.1-2.3 0-0.1 0-0.3 0.1-0.3 0.3-0.6 0.1-1.2 0-1.8-0.1-0.5-0.1-0.9 0.4-1.2 0.2-0.2 0.3-0.4 0.1-0.6-0.2-0.3-0.1-0.5-0.1-0.8 0-0.5 0.1-1.1-0.1-1.7-0.2-0.4-0.1-0.9 0.2-1.2 0.2-0.4 0.1-0.6 0-0.8-0.2-0.3-0.3-0.5 0-0.6 0.6-0.3 0.5-0.4 0-0.7-0.2-0.1-0.1-0.3-0.2-0.4-0.2-0.7-0.1-1.4-0.2-2.1 0-0.2-0.5-0.4-0.2-0.7 0.6-0.6 0.4-1.4 0.4-2 0-0.6-0.2-1.3 0.1-1.9 0.1-0.3 0.2-0.5 0.1-0.8-0.1-0.2-0.1-0.3 0.1-0.4 0.1-0.1 0.2-0.1 0.4 0 0.1 0.1 0.3 0.1 0.2 0.4q-0.1 0.2-0.1 0.4c0 0.2 0.2 0.3 0.4 0.4q0.3 0.1 0.5-0.1c0.2-0.1 0.1-0.3-0.1-0.4-0.1-0.2-0.1-0.3-0.1-0.5 0.1-0.3 0-0.4-0.4-0.4-0.7-0.1-1.1-0.6-0.9-1.2 0.2-0.6 0.2-1.1-0.3-1.6-0.2-0.2-0.5-0.4-0.4-0.8 0.2-0.7 0.5-1.5 0.6-2.3 0-0.2 0.3-0.3 0.5-0.5 0.2-0.2 0.4-0.4 0.3-0.7-0.1-0.3-0.4-0.2-0.6-0.2-0.2 0.1-0.3 0-0.3-0.1 0-0.8-0.4-1.7 0-2.5 0.2-0.3 0.2-0.6 0.1-1-0.3-0.4-0.4-1 0.1-1.4 0.2-0.2 0.2-0.6 0.1-0.7-0.6-0.4-0.4-0.9-0.3-1.4 0.1-0.5 0.2-1-0.3-1.4-0.2-0.1-0.1-0.3-0.1-0.5 0-0.6 0.6-1.3 0-1.9 0-0.1-0.1-0.5 0.2-0.7q0.1-0.1 0-0.4c-0.4-0.8-0.7-1.7-0.5-2.7 0.1-0.9 0.3-1.7 0.5-2.6 0.1-0.6 0.5-1.2 0.1-1.7-0.4-0.6-0.2-1.1-0.2-1.6-0.1-0.2 0-0.3 0.2-0.4 0.4-0.2 0.4-0.6 0.3-0.9-0.1-0.3 0-0.5 0-0.7 0.3-0.9 0.2-1.8-0.1-2.7-0.3-0.7-0.2-1.4 0.1-1.9 0.2-0.6 0.3-1.1-0.1-1.5-0.2-0.3-0.3-0.5 0-0.8 0.4-0.4 0.5-0.8 0.1-1.3-0.3-0.3-0.3-0.7 0.1-0.9 0-0.1 0.1-0.2 0.1-0.3-0.1-0.4 0.1-0.6 0.6-0.4 0.2 0 0.6-0.2 0.6-0.3-0.3-0.4 0.1-0.9-0.5-1.3-0.9-0.7-0.9-1.3-0.2-2 0.4-0.3 0.4-0.3 0-0.6-0.1-0.1-0.1-0.2-0.1-0.3-0.2-0.5 0-1-0.2-1.5-0.2-0.9-0.2-1.9 0-2.8 0.1-0.2 0.1-0.4 0-0.6-0.5-0.6-0.2-1.3-0.1-1.9 0.2-0.6 0-1-0.3-1.4-0.2-0.3-0.2-0.5-0.1-0.8 0.1-0.3 0.3-0.5 0.7-0.6 0.1 0 0.2-0.2 0.1-0.3-0.1-0.1-0.2-0.2-0.4-0.1-0.6 0.6-0.4 0-0.5-0.3-0.1-0.2-0.1-0.4-0.1-0.7-0.1-0.9 0-1.8-0.2-2.7-0.1-0.9-0.3-1.9 0.5-2.7 0.3-0.2 0.1-0.4 0-0.7-0.6-0.7-0.6-1.5-0.3-2.3 0.1-0.3 0.1-0.6-0.2-0.9-0.6-0.4-0.6-0.8-0.2-1.4 0.1-0.1 0.3-0.2 0.3-0.4-0.3-0.9 0.5-1.9-0.3-2.8-0.1 0 0-0.2 0-0.3 0.2-1.3 0-2.7 0.3-4q0.1-0.1 0-0.2c-0.2-0.7 0-1.4 0-2.1-0.1-1.1 0-2.2 0-3.3 0-0.2-0.2-0.4-0.1-0.6 0.2-0.9 0.1-1.8 0.2-2.6 0-1.1 0.2-2.2 0.6-3.3 0.1-0.1 0.1-0.2 0-0.3-0.7-0.7-0.3-1.6-0.4-2.5-0.1-0.4 0-0.8 0.4-1.2 0.3-0.4 0.2-1-0.1-1.3-0.4-0.3-0.2-0.5-0.3-0.8 0-0.8 0.9-1.6 0.2-2.5 0-0.1 0.1-0.2 0.1-0.3 0.1-0.3 0-0.5 0-0.8 0-0.5-0.3-1 0.1-1.5 0.2-0.2 0.3-0.3-0.1-0.5-0.4-0.2-0.7-0.6-0.1-0.9 0.3-0.1 0.2-0.3 0.2-0.5-0.1-0.2-0.1-0.3 0.1-0.4 0.4-0.2 0.4-0.4 0.1-0.7-0.2-0.2-0.1-0.5 0-0.7 0-0.3 0-0.5-0.2-0.7-0.3-0.2-0.2-0.4-0.1-0.7 0.1-0.6 0.4-1.1 0.4-1.7-0.1-0.7-0.3-1.3-0.3-2.1 0-1-0.1-2.1 0-3.2 0-0.9 0.6-1.9-0.2-2.7-0.1-0.1-0.1-0.2-0.1-0.2 0.8-0.5 0.5-1.2 0.2-1.5-0.5-0.8-0.5-1.5-0.3-2.3 0.1-0.7-0.2-1.5-0.4-2.3-0.1-0.3 0.1-0.6 0.1-0.9 0-0.7-0.1-1.4 0.2-2.1 0 0-0.1-0.1-0.1-0.2-0.5-0.7-0.6-1.4-0.5-2.1 0.1-0.2 0.2-0.4 0.1-0.6-0.3-0.4-0.1-0.9 0.1-1.3 0.3-0.5 0.4-0.9 0.1-1.5-0.2-0.4-0.2-0.9 0.1-1.3 0.3-0.3 0.1-0.5 0-0.8-0.1-0.3-0.4-0.6-0.3-1 0.2-0.9 0.6-1.9-0.1-2.8-0.1-0.1 0-0.4 0-0.6 0.5-1.1 0.5-2.1 0.2-3.2-0.1-0.3 0-0.8 0.2-1.1 0.1-0.1 0.2-0.2 0.2-0.3-0.1-1-0.1-1.9-0.2-2.8 0-0.3 0.3-0.6 0.2-0.9-0.5-0.9-0.5-1.8-0.6-2.7-0.1-0.6-0.2-0.9 0.6-1 0.2 0 0.4-0.2 0.4-0.4 0-0.2-0.2-0.2-0.4-0.2-0.4-0.1-0.5-0.3-0.5-0.6 0-0.4-0.1-0.8-0.2-1.2-0.2-1.1 0.2-2.2 0.2-3.3 0-0.7 0.2-1.4 0.2-2.1 0-0.2 0-0.3-0.1-0.4-0.3-0.4-0.3-0.8-0.1-1.2 0.2-0.6 0.4-1.2 0.1-1.9-0.1-0.2 0-0.3 0.1-0.5 0.4-0.8 0.3-1.8 0.2-2.6-0.1-0.9-0.1-1.7 0-2.5 0.1-0.7 0.3-1.5-0.2-2.1-0.1-0.2-0.2-0.4 0.1-0.5 0.4-0.2 0.4-0.6 0.3-0.9-0.3-1 0-1.9 0.1-2.9 0-0.4-0.1-0.9 0.2-1.3 0.3-0.4 0.2-0.7 0.1-1-0.3-0.7-0.9-1.3-0.7-2.1 0.1-0.2 0.1-0.5 0.2-0.7 0.2-0.7 0-1.4-0.2-2-0.1-0.6-0.7-1.1-0.2-1.8 0.1-0.2 0.1-0.6 0-0.7-0.4-0.5-0.2-0.9-0.2-1.3 0.1-0.7-0.1-1.3 0.1-1.9 0.1-0.6 0.1-1.1 0-1.6-0.1-0.5-0.2-0.8 0.2-1.1 0.1-0.1 0.2-0.3 0.1-0.4-0.8-0.7 0-1.4 0.1-2 0.1-0.2 0.1-0.3 0-0.6-0.5-0.6-0.8-1.3-0.1-2 0.1-0.2 0.3-0.6 0.2-0.7-0.3-0.7 0.1-1.2 0-1.8 0-0.1 0.1-0.3 0-0.4-0.4-1-0.1-2.1-0.2-3.1-0.1-1 0.9-1.9 0.3-2.9 0-0.1 0.1-0.3 0.1-0.4 0.3-0.3 0.3-0.7 0.3-1.1q0-1.5 0.3-2.9c0-0.3 0-0.5-0.1-0.8-0.3-0.3-0.2-0.8 0.1-0.9 0.8-0.2 0.4-0.6 0.2-1-0.3-0.6 0.2-1.2 0-1.8 0 0 0.1 0 0.2-0.1-0.1-0.4-0.5-0.9-0.3-1.4 0.1-0.6 0.1-1.2 0.2-1.9 0.1-0.5-0.6-1.2 0.2-1.7 0 0-0.1-0.1-0.1-0.2-0.8-1.6-0.4-3.4-0.8-5-0.1-0.9 0.4-1.7 0.5-2.5 0-0.1 0.1-0.2-0.1-0.3q-0.1-0.1-0.3 0c-0.1 0.1-0.2 0.4-0.3 0.2-0.2-0.2 0.2-0.2 0.2-0.4 0.2-0.3 0.5-0.6 0-0.8-0.5-0.2-0.4-0.4-0.2-0.7 0-0.1 0.2-0.3 0.2-0.5-0.1-0.3-0.4-0.8 0.4-0.8 0.1 0 0.1-0.2 0-0.3-0.3-0.3-0.1-0.7 0-1 0.1-0.5 0.1-0.8-0.2-1.2-0.4-0.5-0.6-1-0.2-1.5 0.2-0.4 0.1-0.7-0.1-1-0.2-0.4-0.3-0.9-0.1-1.2 0.3-0.6 0.1-1-0.2-1.5-0.1-0.2-0.1-0.3 0.1-0.5 0.4-0.3 0.3-0.7 0.3-1.1 0.1-0.8-0.1-1.6 0.1-2.4 0.1-0.2 0.1-0.4-0.1-0.6-0.2-0.2 0-0.4 0.1-0.6 0.1-0.5 0.1-1 0.7-1.4 0 0 0-0.1 0-0.1-0.2-0.5-0.2-1-0.5-1.4-0.3-0.4-0.5-0.6 0-0.9 0.1 0 0.2-0.2 0.1-0.3-0.6-0.2-0.3-0.4 0-0.6 0.3-0.2 0.2-0.4 0-0.6-0.2-0.2-0.6-0.5 0-0.8 0.1-0.1 0-0.3 0-0.5q0-0.6 0.3-1.2c0.3-0.9 0.4-1.7-0.2-2.5q-0.1-0.1-0.1-0.3 0.2-0.9 0.3-1.8c0-0.3 0.2-0.7 0.1-1.1-0.2-0.4 0.4-0.5 0.4-0.9 0-0.8 0.1-1.6-0.4-2.3-0.1-0.2-0.1-0.4 0-0.7 0.3-0.6 0.7-1.3 0.4-1.9-0.4-1-0.5-2-0.2-3 0.2-0.4 0.1-0.7-0.3-0.9-0.2-0.1-0.4-0.3-0.2-0.4 0.5-0.7 0.1-1.3 0.1-2 0-0.2 0-0.3 0.1-0.5 0.3-0.2 0.2-0.4 0-0.7-0.2-0.1-0.2-0.4-0.2-0.6-0.1-0.8-0.2-1.5 0-2.3 0.1-0.3-0.2-0.3-0.5-0.3-0.4 0-0.6-0.3-0.5-0.6 0.4-0.8 0.2-1.8 1.1-2.4 0.1-0.1 0.3-0.2 0.1-0.3-0.3-0.3-0.3-0.6-0.4-0.9-0.3-0.7-0.5-1.3 0-1.9 0.1-0.1 0-0.3 0-0.4 0-0.6 0-1.2-0.3-1.8-0.2-0.3-0.3-0.6-0.2-0.9 0.3-0.6 0.1-1.1-0.2-1.6-0.2-0.5 0.2-0.7 0.3-1 0.1-0.4-0.5-0.7-0.2-1.1 0-0.1 0.2-0.2 0.2-0.3 0.3-0.7 0.6-1.3 0.4-2.1-0.2-0.7-0.2-1.5-0.3-2.3 0-0.2 0.1-0.3 0.2-0.5 0.1-0.2 0.2-0.3 0.1-0.5-0.2-0.6 0.1-0.7 0.7-0.8 0.2 0 0.6 0.1 0.6-0.3 0-0.3-0.3-0.4-0.6-0.4-0.2 0-0.3 0-0.4-0.2 0-0.1 0.1-0.2 0.2-0.3 0.5-0.5 0.5-0.5-0.2-0.8q0-0.1-0.1-0.1c-0.5-0.2-0.4-0.6-0.5-1-0.1-0.3 0.4-0.1 0.6-0.2 0.4-0.2 0.5-0.5 0.2-0.9-0.3-0.4-0.9-0.7-0.3-1.3 0 0 0-0.2-0.1-0.3-0.4-0.7-0.1-1.5-0.2-2.2-0.1-0.7-0.1-1.4-0.1-2.1-0.1-0.3-0.1-0.6-0.2-0.9-0.2-0.4-0.6-0.8-0.2-1.3 0.1-0.1 0-0.4-0.2-0.5-0.4-0.2-0.5-0.5-0.1-0.8 0.2-0.1 0.1-0.4 0.2-0.6 0-0.3 0-0.7 0.2-1 0.3-0.3 0.3-0.5 0.2-0.9-0.1-0.2-0.2-0.6 0.1-0.7 0.4-0.3 0.5-0.5 0.2-0.9 0-0.1-0.1-0.2 0-0.2 0.5-0.2 1.6 0.5 1.6 0.9-0.1 0.6 0 1 0.3 1.5 0.3 0.6 0.4 1.3 0.2 1.9-0.3 0.7 0 1.3 0.2 1.8 0.1 0.5 0.2 0.9 0.2 1.3 0 0.5 0.1 1 0.2 1.4 0.3 0.8 0.4 1.6 0.4 2.3-0.2 1.1 0.4 2.2 0 3.2 0 0.1 0 0.1 0.1 0.2 0.2 0.3 0.1 0.6-0.2 0.8-0.3 0.2-0.3 0.4-0.1 0.7 0.4 0.7 0.4 1.5 0.5 2.3 0 1.2-0.3 2.3-0.2 3.5 0.1 1.2-0.1 2.4 0 3.6 0.1 1 0.1 1.9 0.5 2.9 0.2 0.5 0.4 1.2 0.1 1.9-0.2 0.5-0.1 0.8 0.3 1.2 0.5 0.3 0.2 1.5-0.4 1.6-0.4 0-0.4 0.2-0.3 0.5 0.1 0.2 0.2 0.4 0.4 0.6 0.3 0.3 0.5 0.6 0.4 0.8-0.7 0.9-0.2 1.8 0 2.6 0 0.3 0.1 0.4 0.4 0.2 0.1-0.1 0.3-0.2 0.4-0.1 0.1 0.2 0 0.3 0 0.4q-0.5 0.7-0.3 1.4 0 0.4-0.2 0.6c-0.6 0.7-0.8 1.4-0.8 2.2 0 0.7 0.4 1.3 0.1 2-0.2 0.5-0.4 1 0.3 1.4 0.1 0.1 0.1 0.2-0.1 0.4q-0.2 0.1-0.2 0.3c0 0.7 0 1.4-0.3 2.1-0.1 0.3-0.1 0.7 0.5 0.5 0.4-0.1 0.5 0.2 0.5 0.4 0 0.7 0.3 1.4 0 2-0.2 0.6-0.1 1.3 0 1.9 0.1 0.3 0.2 0.7-0.5 0.7-0.1 0-0.3 0.1-0.2 0.3 0.4 0.6 0.1 1.2 0.2 1.9 0 0.1 0 0.2 0.1 0.3 0.5 0.4 0.4 0.9 0.3 1.3-0.3 0.8-0.3 1.6-0.6 2.4q-0.2 0.6 0.1 1.2c0.2 0.5 0.4 1 0.6 1.5 0.1 0.6-0.1 1.3 0.1 2-0.6 0.6 0 1.1 0.5 1.5 0.1 0.2 0 0.2-0.1 0.2-0.9 0.7-2.3 1-1.9 2.4 0 0.1-0.1 0.2-0.2 0.3-0.1 0.3 0 1.3 0.2 1.3 0.5 0 0.4 0.2 0.5 0.5 0 0.5-0.2 1 0.3 1.4 0.1 0.2 0 0.4-0.3 0.6-0.9 0.3-1 0.6-0.3 1.2 0.4 0.3 0.8 0.8 0.6 1.3-0.4 0.7-0.3 1.3 0.4 1.7 0.1 0.1 0.2 0.2 0.3 0.2 0.3 0.2 0.3 0.5 0 0.6-0.9 0.5-0.5 1.4-0.8 2-0.1 0.2 0.1 0.5 0.4 0.5 0.6 0 0.9 0.1 0.4 0.6q-0.2 0.2 0 0.3c0.2 0.2 0.2 0.3-0.1 0.4-0.5 0.3-0.3 0.6 0 0.9q0.5 0.5 0.3 1c-0.1 0.4 0.1 0.7 0.2 1 0.1 0.2 0.3 0.3 0.3 0.5-0.2 1 0.2 2-0.1 3-0.2 0.7-0.2 1.4-0.2 2.1 0 0.2-0.1 0.4 0.3 0.4 0.1-0.1 0.2-0.3 0.4-0.1 0.1 0.1 0 0.3-0.1 0.4-0.7 0.6-0.6 1.3-0.2 2 0.2 0.2 0.2 0.5-0.1 0.6-0.4 0.3-0.3 0.6-0.2 1 0.2 0.2 0.1 0.5 0 0.8-0.2 0.6-0.1 1.2 0.1 1.7 0.3 0.4 0.2 0.8-0.1 1.1-0.2 0.4-0.3 0.6-0.1 1 0.1 0 0.1 0.2 0 0.3-0.1 0-0.2 0-0.3-0.1-0.1-0.2-0.3-0.3-0.5-0.1-0.1 0.3 0 0.4 0.3 0.5 0.3 0 0.5 0 0.6 0.4 0 0.5-0.7 1.1-0.2 1.7 0 0-0.1 0.1-0.1 0.2-0.5 0.3-0.5 0.8-0.4 1.2 0.2 0.6-0.1 1.2 0.3 1.8q0.1 0.2 0 0.3c-0.4 0.4-0.8 0.8-0.3 1.4-0.6 0.7-0.2 1.6-0.4 2.4-0.1 0.4-0.2 0.7-0.2 1.1 0 0.6-0.1 1.3-0.8 1.6-0.3 0.2-0.2 0.4-0.2 0.7-0.1 0.2 0 0.4-0.1 0.6-0.5 0.8-0.1 1.6 0.1 2.3 0 0.4 0 0.6-0.2 0.8-0.6 0.7-0.5 1.5 0.5 1.9 0.4 0.2 0.3 0.3 0.2 0.5-0.3 0.4-0.2 0.8 0.1 1.2 0.1 0.2 0.3 0.5 0.1 0.8-0.1 0.1 0 0.2 0 0.4 0.3 1.2 0.6 2.4-0.1 3.6-0.4 0.8 0.1 1.4 0.2 2.1 0.2 0.7 0.4 1.4-0.1 2-0.3 0.3-0.4 0.6-0.1 0.9 0.1 0.2 0.1 0.4 0 0.5-0.2 0.2-0.4 0.3-0.6 0.1-0.1-0.1-0.3-0.2-0.4 0-0.1 0.1 0 0.2 0.1 0.3 0.1 0.1 0.2 0.3 0.3 0.4 0.8 0.2 0.8 0.7 0.7 1.2-0.1 0.5-0.1 1-0.2 1.5-0.3 1-0.5 2.1-0.1 3.1q0 0.2 0 0.3c-0.4 1.6 0 3 0.3 4.5 0 0.4 0.1 0.7-0.1 1-0.5 1.1-0.5 2.2-0.5 3.3-0.1 0.7 0 1.4-0.1 2.1-0.2 0.6-0.1 1 0.5 1.4 0.5 0.3 0.7 0.8 0.6 1.3-0.3 1-0.5 2.1-1.1 3-0.3 0.4-0.4 0.7 0 1.1 0.4 0.3 0.7 0.8 0.5 1.2-0.2 0.9 0.1 1.8-0.6 2.5-0.1 0-0.1 0.2-0.1 0.3 0.1 0.5-0.1 0.9-0.4 1.3-0.3 0.3-0.3 0.5-0.1 0.8 0.5 0.5 0.3 1.3 0.8 1.8 0.1 0 0.1 0.2 0 0.3-0.2 0.6-0.2 1.1-0.1 1.7 0.2 0.6-0.2 1.2-0.3 1.8-0.1 0.7-0.1 1.4-0.2 2.1 0 0.3 0 0.4 0.3 0.3 0.2-0.1 0.4-0.1 0.5 0.1 0.1 0.1 0 0.2-0.1 0.3-0.1 0.1-0.2 0.3-0.4 0.2-0.2-0.1-0.3-0.5-0.6-0.2-0.2 0.3-0.2 0.5 0 0.8 0.1 0.1 0.2 0.3 0 0.4-0.3 0.2-0.4 0.5-0.1 0.8 0.3 0.2-0.2 0.7 0.3 0.9 0.4 0.1 0.3 0.3 0.2 0.6-0.1 1.1-0.3 2.1-0.2 3.2 0 0.8 0.3 1.6 0.3 2.4-0.1 0.6 0 1.1 0.8 1.3 0.1 0.1 0.3 0.2 0 0.3-0.8 0.1-0.5 0.9-0.9 1.3-0.2 0.1-0.2 0.4 0 0.6 0.7 0.6-0.1 1.4 0.3 2.1 0 0.1-0.2 0.1-0.3 0.1-0.1 0.1-0.3 0.1-0.2 0.2 0.5 0.4 0.1 0.8 0.2 1.2 0.1 0.5 0.8 0.7 0.8 1.1 0.1 0.4-0.1 0.9 0.2 1.4q0 0 0 0c0.1 0.4 0.3 0.8 0 1.3-0.5 0.6-0.4 1.3 0 1.9 0.2 0.4 0.2 0.7 0.2 1-0.2 0.6-0.5 1.2-0.3 1.8 0.2 0.5 0.2 0.9 0.2 1.4 0.1 0.4-0.1 0.8-0.5 1-0.8 0.3-0.8 0.4-0.4 1 0.2 0.4 0.3 0.7-0.1 0.9-0.3 0.1-0.3 0.3-0.2 0.5 0.1 0.8 0.3 1.5-0.2 2.2-0.1 0.2-0.2 0.4 0 0.5 0.4 0.5 0.2 0.9-0.2 1.2-0.2 0.2-0.3 0.5-0.6 0.6-0.3 0.1-0.2 0.4-0.1 0.6 0.3 0.2 0.3 0 0.4-0.2 0.2-0.1 0.5 0 0.5 0-0.3 0.6 0.5 0.8 0.4 1.3-0.2 0.9 0.1 1.9 0.1 2.8 0 0.2 0.1 0.6-0.3 0.7-0.5 0.2-0.3 0.5-0.1 0.7 0.3 0.3 0.5 0.6 0.2 1-0.1 0.1-0.1 0.2-0.1 0.4 0.2 0.8 0 1.6 0.5 2.4 0.1 0.2-0.1 0.4-0.1 0.6-0.3 0.5-0.5 1.1-0.5 1.6-0.1 0.7 0 1.4-0.2 2.1-0.1 0.2 0 0.4 0.1 0.6 0.3 0.4 0.2 0.9 0.3 1.3 0 0.7-0.2 1.3-0.2 1.9-0.1 0.6 0.7 1.2 0 1.9 0 0 0.1 0.2 0.1 0.2q0.2 0.4 0 0.8-0.4 0.6 0 1.2 0.3 0.4 0 0.8c-0.3 0.5-0.3 1-0.2 1.5 0.3 1 0 2 0.1 3 0.1 1-0.2 1.9 0.1 2.9 0 0.2 0.1 0.3-0.2 0.5-0.6 0.4-0.6 0.7 0.1 1.1 0.5 0.3 0.5 0.6 0.2 0.9-0.5 0.4-0.3 0.8-0.1 1.2 0.1 0.2 0.3 0.4 0.3 0.7q0 1.3 0.1 2.6c0.1 0.8 0.3 1.6 0.7 2.3 0.2 0.3-0.1 0.7 0.5 0.9 0.4 0.1 0.3 0.3 0 0.5q-0.7 0.5-0.2 1.1c0.2 0.1 0.1 0.3 0.1 0.5-0.1 0.6-0.6 1.2 0 1.7 0.2 0.2 0 0.4-0.3 0.5-0.6 0.2-0.3 0.4 0.1 0.6 0.2 0.1 0.6 0 0.6 0.4-0.1 0.7-0.5 1.2-0.5 1.9 0.1 0.1-0.1 0.3-0.3 0.4-0.8 0.3-0.7 0.4-0.1 0.9 0.2 0.2 0.8 0.6 0.2 1-0.5 0.3-0.3 0.5 0.1 0.8q0.2 0.1 0.4 0.3c0.3 0.3 0.3 0.4-0.1 0.4-0.2 0-0.6 0.1-0.4 0.3 0.3 0.3 0.1 0.7 0.4 0.9 0.4 0.3 0.4 0.6 0.1 0.9q-0.1 0.2 0 0.4c0.6 1-0.2 1.6-0.9 2.1-1.1 0.8-0.9 1.9 0.1 2.6 0.2 0.1 0.4 0.3 0.2 0.4-0.4 0.4-0.3 0.8-0.3 1.3-0.1 0.7-0.2 1.4 0.1 2.2 0.4 1.3 0.2 2.7 0.2 4-0.1 0.7-0.1 1.3 0 1.9 0.1 0.4 0.3 0.8-0.3 1-0.1 0-0.2 0.2-0.1 0.3 0.3 0.6 0 1.2 0.1 1.8 0.1 0.3 0.1 0.5-0.4 0.5-0.5 0-0.6 0.5-0.4 0.7 0.3 0.6 0.1 1.2 0 1.7-0.1 0.9 0.6 1.7-0.1 2.5 0 0.1 0.2 0.3 0.3 0.4 0.5 0.5 0.5 1 0.1 1.6-0.1 0.2-0.3 0.3-0.2 0.5 0.3 0.7 0.3 1.5 0.3 2.2 0 0.2 0.1 0.6 0.2 0.6 0.7 0.2 0.5 0.6 0.4 1-0.6 1.7-0.2 3.4-0.1 5.1 0.1 1.1 0.3 2.1-0.5 3.1-0.4 0.5-0.2 0.7 0.5 0.9q0.2 0 0.3 0c0.2 0 0.2 0.1 0.2 0.3 0 0.1 0 0.2-0.1 0.3-0.2 0-0.2-0.1-0.2-0.2-0.4-0.2-1 0-0.9 0.4 0 0.4-0.3 0.9 0.3 1.2 0.1 0 0.2 0.2 0.1 0.3-0.2 0.8 0.2 1.6 0.5 2.3 0.1 0.1 0.2 0.3 0.1 0.4-0.4 0.5-0.2 1-0.1 1.4 0.1 0.5-0.1 0.5-0.4 0.3-0.3-0.1-0.6-0.2-0.7 0.1-0.2 0.3-0.1 0.8 0.2 0.8 0.8 0.1 0.6 0.5 0.5 0.9-0.1 0.2-0.1 0.3 0 0.5 0.5 0.6 0.2 1.3 0 1.9-0.2 0.6-0.3 1.2-0.2 1.7 0.1 0.9 0 1.7-0.4 2.4 0 0.2 0 0.3 0 0.5 0.1 0.6 0.9 1.3-0.1 1.9 0 0 0 0.2 0.1 0.3 0.6 1 0.1 2.1 0.4 3.2 0.1 0.4-0.3 0.6-0.8 0.4-0.4-0.2-0.8-0.2-1.1 0-0.1 0.1 0.4 0.3 0.6 0.5 0.1 0.1 0.2 0.1 0.3 0.2 0.2 0.1 0.6-0.2 0.8 0.1 0.4 0.3-0.4 0.2-0.3 0.5q0 0 0 0c-0.1 1.3 0 2.5 0.4 3.7 0.3 0.7-0.4 1.6 0.1 2.4 0.5 0.6 0.2 1.4 0.2 2.1 0 0.1 0 0.2 0 0.2 0.2 0.4 0.1 0.8 0 1.1 0 0.7-0.3 1.3 0 2 0.2 0.6 0.3 1.4 0 1.9-0.5 0.7-0.4 1 0 1.7 0.4 0.6 0.6 1.4 1.3 1.9 0.3 0.3 0.3 0.6-0.1 0.8-0.3 0.1-0.6 0.3-0.5 0.5 0.2 0.5-0.2 0.9-0.2 1.4 0.1 0.6 0.4 1.3 0.2 1.8-0.2 0.8-0.5 1.4 0.1 2.1-0.2 0.5 0 0.9 0.3 1.3 0.1 0.1 0.1 0.2 0.1 0.3-0.1 0.1-0.3 0-0.4 0q-0.4-0.2-0.9-0.4c-0.2 0-1 0.4-1 0.6 0 0.3 0.3 0.4 0.6 0.4 0.5 0.1 0.7 0.4 0.6 0.8-0.3 0.8 0.3 1.4 0.8 1.8 0.5 0.4 0.3 0.8 0.1 0.9-0.3 0.3-0.6 0.6-1.1 0.5zm-0.3-317.4c-0.5-0.2-0.1-0.7-0.5-0.8-0.2-0.1-0.6 0.3-0.6 0.5 0.2 0.3 0.4 0.6 0.8 0.6 0.1 0 0.3-0.2 0.3-0.3zm-0.5 1.5c0-0.2-0.1-0.3-0.3-0.2-0.1 0-0.3 0.1-0.3 0.2-0.1 0.2 0.1 0.3 0.2 0.3 0.2-0.1 0.4-0.1 0.4-0.3zm1.9 17.7c0-0.2-0.1-0.3-0.2-0.3-0.3 0.1-0.3 0.3-0.2 0.5 0.1 0.1-0.1 0.4 0.1 0.4 0.1-0.1 0.4-0.4 0.3-0.6zm-1.5 0.4c0-0.1-0.1-0.2-0.2-0.2-0.2 0.1-0.4 0.1-0.4 0.2-0.1 0.2 0.1 0.2 0.2 0.2 0.1 0 0.3 0 0.4-0.2zm0.8 14.3c0-0.1-0.1-0.3-0.3-0.2-0.2 0-0.3 0.1-0.3 0.2 0 0.2 0.2 0.3 0.3 0.3 0.2 0.1 0.2-0.1 0.3-0.3zm1 31.1c0.1-0.2-0.1-0.3-0.3-0.3q-0.2 0-0.3 0.3c0.1 0.1 0.1 0.3 0.4 0.3 0.2 0 0.2-0.1 0.2-0.3zm-2.5 0.7c0-0.1 0.1-0.2 0-0.2q-0.2-0.1-0.3 0c-0.3 0.1-0.6 0.3-1 0.2 0.2 0.5 0.7 0.3 1 0.4 0.2 0.1 0.2-0.2 0.3-0.4zm1.7 1.6c0-0.3-0.1-0.5-0.5-0.5-0.2 0-0.3 0.1-0.3 0.2 0 0.4 0.3 0.5 0.5 0.5 0.3 0.1 0.3-0.1 0.3-0.2zm-0.8 7.9c0-0.2 0-0.4-0.3-0.5-0.3 0-0.3 0.2-0.3 0.4 0 0.2-0.1 0.4 0.2 0.5 0.3 0 0.4-0.2 0.4-0.4zm-0.5 5.8c0-0.4-0.6-0.9-1.2-0.9-0.5 0-0.8 0.4-0.8 0.9 0 0.3 0.6 1 0.9 1 0.2 0 1.1-0.7 1.1-1zm0.4 7.6c0-0.1-0.1-0.1-0.2-0.1-0.4 0-0.4 0.3-0.5 0.5 0 0 0.1 0.1 0.2 0.1 0.2-0.2 0.5-0.2 0.5-0.5zm-0.1 172.7c0-0.2 0-0.3-0.2-0.3-0.2 0-0.3 0.2-0.3 0.3 0.1 0.2 0.1 0.5 0.3 0.5 0.3-0.1 0.1-0.4 0.2-0.5zm-1.1 5.5c0-0.2-0.1-0.3-0.2-0.3-0.3 0-0.5 0.2-0.6 0.5 0 0.1 0 0.2 0.2 0.2 0.3 0 0.4-0.3 0.6-0.4zm-0.4 4.7c-0.1-0.3-0.4-0.4-0.6-0.5-0.3 0-0.4 0.2-0.4 0.4 0.2 0.3 0.5 0.2 0.7 0.4 0.2 0 0.3-0.1 0.3-0.3zm0.6 7.7c0.2-0.4-0.4-1.4-0.8-1.6q-0.3-0.2-0.6-0.1c-0.3 0.1-0.1 0.3-0.2 0.4 0.1 0.4 0 0.8 0.4 1 0.1 0.1 0.1 0.3 0.2 0.4 0.2 0.2-0.1 0.7 0.3 0.6 0.3 0 0.5-0.4 0.7-0.7zm-0.1 3.5c0.1-0.2 0.2-0.4-0.2-0.6-0.4-0.1-0.6-0.4-0.4-0.8 0.2-0.3-0.1-0.5-0.3-0.5-0.4-0.1-0.4 0.2-0.4 0.5 0.2 0.5 0 1 0.3 1.5 0.2 0.2 0.3 0.4 0.6 0.4 0.3 0 0.3-0.2 0.4-0.5zm0.6 2.9c0.1 0 0.1-0.2 0-0.2-0.4 0-0.6-0.3-0.8-0.5 0-0.1-0.1-0.1-0.2-0.1-0.1 0-0.2 0.1-0.2 0.2 0.1 0.3 0.1 0.4 0.3 0.5 0.3 0.1 0.6 0.3 0.9 0.1zm-0.9 13.8c0-0.1-0.1-0.2-0.1-0.1q-0.2 0.2-0.3 0.5c0 0.1 0.1 0.2 0.2 0.2q0.3-0.3 0.2-0.6zm0.7 8.6c0.2-0.2 0.6 0.1 0.6-0.4 0-0.2-0.2-0.3-0.4-0.2-0.3 0-0.5 0.2-0.6 0.4 0 0.3 0.2 0.2 0.4 0.2zm-0.8-339c-0.3 0.1-0.9-0.2-0.8-0.4 0.2-0.5 0.1-0.7-0.5-0.8-0.3-0.1-0.4-0.5-0.3-0.7 0.1-0.5 0-1 0.2-1.4 0.5-1.2 0.3-2.4 0.3-3.6 0-0.8 0-1.7 0.4-2.4 0.2-0.4 0.3-0.6 0.1-1-0.4-0.4-0.3-0.9 0.2-1.2 0.1-0.1 0.3-0.3 0.2-0.4-0.2-0.3 0-0.6 0-0.9 0-0.6 0.4-1.3 0.1-2-0.1-0.3-0.3-0.5 0.2-0.8 0.4-0.2 0.6-0.8 0.4-1-0.6-0.6-0.6-1.3-0.8-2-0.3-1.3 0.3-2.5-0.1-3.8-0.1-0.6 0-1.2-0.3-1.8-0.1-0.3-0.1-0.7 0.1-1 0.1-0.3 0.1-0.9 0-1-0.5-0.7-0.1-0.8 0.5-0.9 0.2-0.1 0.2-0.4 0.1-0.4-1-0.2-0.2-1.1-0.7-1.4 0.3-0.4 0.1-1.1 0.5-1.5q0.2-0.2 0-0.4c-0.3-0.2-0.2-0.4-0.1-0.6 0.1-0.2 0-0.5 0-0.7 0-0.8-0.3-1.6 0.1-2.4 0.2-0.4 0.5-0.9 0.4-1.4-0.1-0.6-0.3-1.1-0.5-1.7-0.1-0.4-0.7-0.7-0.4-1.3-1-0.2-0.5-0.8-0.3-1.2 0-0.1 0-0.1 0-0.1q0.8-1 0.8-2.2c0 0 0-0.1 0.1-0.1 0.3-0.4 0.3-0.7-0.2-1-0.5-0.4-0.4-0.7 0.2-0.8 0.7-0.2 0.3-0.4 0.1-0.6-0.1-0.1-0.3-0.2-0.5-0.3-0.1-0.1-0.2-0.2-0.2-0.3 0.1-0.1 0.2-0.1 0.3-0.1 0.2 0 0.4 0.2 0.5 0 0.1-0.2-0.1-0.3-0.2-0.4-0.1-0.1-0.3-0.1-0.2-0.2 0.7-0.5 0.4-0.9 0-1.3-0.1 0 0-0.2 0-0.3 0.3-0.6 0.2-1.2 0.2-1.9 0.1-0.4 0.1-0.7 0.3-1.1 0.2-0.3 0.4-0.5 0.8-0.3 0.3 0.1 0.8 0.1 0.7 0.7-0.1 0.4 0 0.8 0.7 0.9 0.7 0.1 0.9 1.2 0.5 1.7-0.2 0.2-0.5 0.5 0.1 0.7 0.2 0.1 0.2 0.5-0.3 0.7-0.1 0-0.4-0.1-0.4 0.2 0 0.4-0.3 0.5-0.6 0.6-0.5 0.3-0.9 1-0.5 1.2 0.6 0.4 0.4 0.9 0.4 1.3-0.1 0.4 0 0.8 0.2 1.2-0.6 0.3-0.1 0.9-0.2 1.3-0.2 0.6 0.2 1.1 0.2 1.7 0 0.3 0.2 0.7 0.2 1.1q0 0.7 0.1 1.3c0.2 0.8 0.5 1.6-0.2 2.3-0.2 0.2-0.3 0.4-0.5 0.7-0.1 0.2-0.2 0.4 0 0.5 0.9 0.4 0.4 1 0.1 1.5-0.1 0.3-0.1 0.4 0 0.7 0.4 0.8 0.6 1.7 0.3 2.5-0.4 0.8 0 1.6-0.4 2.4 0 0.1 0.1 0.2 0.1 0.3 0.5 0.3 0.6 0.6 0.1 0.9-0.1 0.1 0 0.3 0.1 0.3 0.4 0.2 0.2 0.6 0.4 0.9 0.1 0.2 0.1 0.7-0.5 0.7-0.7 0.1-0.9 0.5-0.6 1 0.2 0.3 0.5 0.5 0.5 0.9 0 0.1 0.1 0.2 0.2 0.2 0.8 0.3 1.1 0.6 0.8 1.3-0.2 0.7-0.3 1.3-0.2 2.1 0 0.9-0.3 1.8 0.1 2.7 0.2 0.2 0.1 0.5 0 0.6-0.4 0.4-0.3 0.9-0.5 1.3-0.1 0.4-0.1 0.8 0 1.2 0.2 0.4 0.2 0.6 0.1 1-0.1 0.4-0.5 1 0.3 1.3 0.3 0.1 0.3 0.4-0.1 0.6-0.3 0.2-0.3 0.4-0.1 0.7 0.3 0.3-0.6 0.3-0.3 0.7 0.1 0.1 0.2 0.2 0.2 0.3 0.5 0.3 0.8 1 0.6 1.4-0.5 0.8-0.3 1.6-0.2 2.4 0.2 0.7-0.6 1-0.5 1.6-0.8 0.3-0.7 0.8-0.5 1.3q0.1 0.2 0 0.3c-0.1 0-0.3 0-0.3-0.1-0.4-0.3-0.7-0.3-1.1 0zm2.4-48.6c0-0.2-0.1-0.4-0.3-0.4-0.2 0-0.3 0.3-0.4 0.4 0 0.2 0.1 0.3 0.2 0.3 0.3 0 0.5-0.1 0.5-0.3zm-1.5 36.3q0-0.2-0.2-0.3c-0.2-0.2 0.1-0.5-0.2-0.5-0.2 0-0.4 0.3-0.4 0.5 0 0.3 0.3 0.4 0.5 0.6 0.2 0 0.2-0.1 0.3-0.3zm-4.8 353q-0.1 0-0.2 0c-0.4-0.1-0.8 0.2-1.3 0 0 0-0.2 0.1-0.2 0.2 0 0.1 0.1 0.2 0.2 0.2q0.8 0.1 1.5 0.2c0.3 0 0.6 0 0.6-0.3 0.1-0.4-0.4-0.3-0.6-0.3zm-0.1-2.6c-0.4 0-0.5 0.2-0.5 0.5q0 0.5 0.5 0.5c0.3 0 0.7-0.1 0.7-0.4 0-0.3-0.3-0.6-0.7-0.6zm0.5-2.6c0-0.2-0.4-0.3-0.6-0.2-0.3 0.1-0.8-0.1-0.8 0.3 0.1 0.4 0.6 0 0.8 0.2 0.3-0.1 0.7 0 0.6-0.3zm1.2 10.5c-0.1-0.3-0.5-0.2-0.7-0.2-0.2 0-0.4 0-0.5 0.2 0.2 0.1 0.3 0.4 0.6 0.3 0.2-0.1 0.6-0.1 0.6-0.3zm-2.1-285.1c-0.2 0-0.4 0-0.4 0.2 0 0.2 0.2 0.3 0.4 0.3 0.2 0 0.4-0.1 0.4-0.3 0-0.3-0.3-0.1-0.4-0.2zm-1 281.2c-0.2 0-0.3 0-0.3 0.2q0.1 0.2 0.3 0.2c0.2 0 0.3-0.1 0.3-0.2 0-0.2-0.2-0.2-0.3-0.2zm9.8-120.3q0.3-0.1 0.2-0.3c0-0.1 0-0.3-0.2-0.4-0.2 0-0.2 0.2-0.2 0.3 0 0.2 0 0.3 0.2 0.4zm-2.4-107.1c0.1 0 0.2-0.1 0.2-0.2 0-0.2-0.1-0.3-0.3-0.4-0.1 0-0.2 0.1-0.2 0.2 0 0.2 0.1 0.4 0.3 0.4zm5.2-77.2c0 0.2 0.1 0.2 0.1 0.2q0.1 0 0.2-0.1c0-0.1-0.1-0.1-0.1-0.2q-0.1 0-0.1 0.1-0.1 0-0.1 0zm-8-221.8c0.4-0.4 0.6-0.9 0.2-1.4-0.3-0.4-0.4-0.9-0.4-1.3-0.1-0.4-0.4-1 0.1-1.4 0.3-0.2 0.1-0.6 0-0.8-0.4-0.8 0.2-1.5 0-2.3 0 0 0.1-0.1 0.1-0.1 0.6-0.4 0.8-0.8 0-1.1-0.1-0.1-0.3-0.2-0.2-0.3 0.5-0.6 0.3-1.2 0.6-1.8 0.1-0.4 0.1-0.6-0.2-0.9-0.3-0.2-0.3-0.5-0.2-0.9 0.2-0.6 0.4-1.2 0.6-1.8 0-0.3 0-0.5-0.4-0.7-0.7-0.4-0.7-0.6-0.2-1.3 0.1-0.1 0.3-0.4 0.1-0.5-0.4-0.5-0.1-0.9 0-1.3q0.1-0.2 0.1-0.5c-0.1-0.9 0.1-1.9 0.2-2.9 0.1-0.8 0-1.7 0-2.5 0-0.1-0.1-0.3-0.3-0.3-0.9-0.7-0.5-1.6-0.4-2.4 0.1-0.7 0.7-1.4-0.2-2.1-0.1 0 0-0.2 0-0.3-0.1-0.8 0.3-1.5 0.2-2.2-0.1-0.3-0.3-0.6-0.1-1 0.2-0.6-0.8-0.7-0.6-1.2 0.2-0.4 0.7-0.7 0.5-1.2q-0.1-0.4-0.2-0.8c-0.1-0.7-0.2-1.3 0.3-2 0.3-0.3 1-1.1-0.1-1.6-0.1 0-0.2-0.2-0.1-0.3 0.4-0.4 0.3-1 0.5-1.4 0.3-0.6 0.2-1.1 0-1.6-0.2-0.4-0.2-0.6 0.2-0.8 0.5-0.2 0.3-0.4 0-0.5-0.4-0.3-0.4-0.6-0.3-0.9q0.2-0.4 0.4-0.8c0.4-1 0-1.5-1.2-1.4-0.1 0-0.3 0.1-0.3-0.1-0.1-0.1 0-0.2 0.1-0.3 0.4-0.2 0.5-0.7 0.4-0.8-0.2-0.5-0.1-0.9-0.2-1.3-0.1-1 0.3-2 0.1-2.9 0-0.6 0.6-1.1 0-1.6 0 0 0-0.1 0.1-0.1 0.7-0.3 0.2-0.6 0-0.8-0.2-0.3-0.2-0.5-0.1-0.8 0.1-0.1 0.3-0.2 0.2-0.4-0.3-0.6 0.1-1.1 0.2-1.7 0.1-0.6 0.3-1.2-0.2-1.7q-0.6-0.5 0.1-0.9c0.4-0.3 0.5-0.7 0.4-1.1-0.1-0.3-0.2-0.6-0.1-0.9 0.2-0.4 0.2-0.8-0.2-1.2-0.1-0.2-0.4-0.5-0.2-0.8 0.4-0.6 0.7-1.3 1.3-1.7 0.5-0.4 0.6-0.9 0.2-1.4-0.2-0.2-0.2-0.4 0.1-0.5 0.7-0.1 0.5-0.6 0.4-0.9-0.1-0.2-0.1-0.3 0.1-0.5 0.4-0.3 0.2-0.6-0.1-0.9-0.3-0.3-0.6-0.7-0.1-1.1 0.6-0.6 0.5-1.3 0.2-2-0.3-0.7-0.1-1.4 0.1-2.1 0.3-1 0.3-1.9-0.1-2.8-0.1-0.3-0.4-0.7-0.2-1 0.5-0.9 0.3-1.8 0.2-2.8-0.1-0.4-0.1-0.7 0.2-1 0.3-0.4 0.3-0.8 0.2-1.2-0.2-0.6-0.6-1.2-0.3-1.9 0.1-0.2 0-0.6-0.4-0.8-0.2 0-0.5-1.4-0.4-1.5 0-0.1 0.1-0.1 0.2-0.1 0.9-0.2 1.2-0.9 0.6-1.5-0.3-0.3-0.4-0.6-0.1-0.9q0.7-0.5 0-1.1c-0.2-0.1-0.3-0.3-0.5-0.5-0.1-0.1-0.1-0.3 0-0.4 0.4-0.1 0.8-0.3 1.2-0.4 0.2-0.1 0.6 0.3 0.7 0 0.1-0.3-0.4-0.4-0.6-0.6-0.1-0.1-0.3-0.1-0.5-0.1-0.4 0.2-0.5 0-0.5-0.3-0.1-0.3 0-0.6 0-0.8-0.1-0.2 0.9-0.6-0.1-0.7-0.1-0.1 0-0.2 0.1-0.3 0.3-0.5 0.6-1 0.3-1.7-0.1-0.3-0.5-0.8-0.1-1.1 0.5-0.4 0.4-0.7 0.2-1.1-0.3-0.7 0.1-1.6-0.3-2.3-0.1-0.1 0-0.3 0.1-0.4 0-0.2 0-0.4-0.1-0.6-0.2-0.4-0.6-0.8-0.3-1.3 0.1-0.1 0-0.2-0.1-0.3-0.5-0.2-0.3-0.4 0-0.6 0.4-0.2 0.2-0.5 0.1-0.7 0-0.3-0.3-0.2-0.5-0.2q-0.3 0.1-0.5-0.2c-0.1-0.2 0.1-0.3 0.2-0.4 0.6-0.6 1.1-1.3 0.9-2.1-0.1-0.3-0.3-0.4-0.4-0.7 0-0.3 0.3-0.4 0.4-0.6 0.1-0.3-0.6-0.1-0.4-0.6 0.2-0.5 0.2-1.1 0.2-1.7 0.1-0.3 0.2-0.6-0.2-0.7-0.1 0-0.1-0.2-0.1-0.2 0-0.2 0.2-0.1 0.2-0.1q0.3 0.3 0.5 0.1c0.2-0.2 0-0.3-0.1-0.4-0.2-0.4-0.1-0.9-0.7-1-0.1-0.1-0.2-0.2 0-0.3 0.8-0.5 0.4-1 0-1.5-0.2-0.3-0.5-0.6 0-0.9 0.7-0.3 0.6-0.7 0.3-1.3-0.2-0.4-0.8-0.8-0.5-1.5 0.3-0.6 0.2-1.2-0.2-1.7-0.1-0.2-0.3-0.3-0.1-0.5 0.5-0.4 0.5-1.1 0.5-1.6 0.1-0.7 0.5-1.6-0.6-2.1-0.2-0.1-0.1-0.4 0-0.6 0.3-0.3 0.1-0.5 0.1-0.8-0.2-0.7-0.6-1.4 0.3-1.9 0.1-0.1 0.1-0.3 0-0.5-0.4-1-0.9-2-0.8-3.2 0-0.4-0.2-0.8 0.2-1.1 0.2-0.2 0.3-0.5 0.2-0.8-0.7-1 0.2-2.1-0.3-3.1-0.1-0.1 0-0.2 0.1-0.3 0.4-0.7 0.1-1.4-0.1-2.1-0.4-1.2-0.6-2.4-0.1-3.5 0.6-1.1 0.2-2-0.4-2.9q-0.9-1.3-0.1-2.5c0.5-0.8 0.3-1.6 0.3-2.3 0.1-0.6-0.2-1.1 0.2-1.6q0.5-0.6 0.3-1.4c-0.1-0.4-0.3-0.8-0.2-1.1 0.2-0.7-0.1-1.3-0.5-1.8-0.3-0.4-0.4-0.7-0.2-1.2 0.2-0.3 0.1-0.6-0.3-0.9-0.4-0.2-0.6-0.6-0.2-1 0.2-0.1 0.2-0.2 0.2-0.4 0.1-0.8 0.1-1.5 0.5-2.3 0-0.1 0-0.4-0.1-0.5-0.3-0.6-0.1-1.1 0.1-1.6 0-0.2 0.2-0.5 0.1-0.6-0.5-1.2 0.2-2.3 0-3.4-0.1-0.8 0.2-1.7-0.2-2.5-0.3-0.4-0.5-1-0.2-1.5 0.4-0.7 0.2-1.7-0.5-2.1-0.3-0.3-0.2-0.4 0.1-0.5 0.3-0.2 0.4-0.3 0.4-0.7 0-0.7-0.7-1.7 0.5-2.2 0.2-0.1 0.3-0.5 0.1-0.7 0-0.1-0.1-0.2-0.1-0.3 0-0.4 0.5-0.5 0.5-0.7-0.1-0.3-0.6-0.3-0.7-0.7-0.2-0.7 0.2-1.5 0-2.2-0.1-0.1 0-0.3 0.2-0.3 1 0 0.4-0.5 0.2-0.8-0.1-0.2-0.4-0.4-0.1-0.6 0.9-0.9 0.3-1.7 0-2.5-0.2-0.5-0.4-0.9-0.3-1.5 0.2-0.7 0.1-1.5-0.4-2.2-0.5-0.5-0.5-0.6 0.2-0.8 0.3-0.1 0.4-0.1 0.1-0.4q-0.5-0.3 0.2-0.4c0.1 0 0.2-0.2 0.2-0.2-0.3-0.4 0.1-1-0.5-1.3-0.2-0.1-0.2-0.3-0.2-0.5 0-0.6 0.1-1.3 0-2 0-0.8-0.1-1.4-0.8-1.8-0.2-0.1-0.3-0.3-0.3-0.4 0.3-0.5 0.1-1 0.2-1.5 0-0.4 0-0.7 0.5-0.9 0.6-0.2 0.4-0.5 0.1-0.8-0.1-0.1-0.4-0.2-0.2-0.3 0.4-0.3 0.1-0.5-0.1-0.8-0.1-0.2-0.2-0.4 0.1-0.6 0.1-0.1 0.3-0.3 0.2-0.4-0.5-0.7 0.3-1.5-0.3-2.1-0.1-0.2-0.2-0.7 0.4-0.3q0.2 0.1 0.3-0.1c0.2-0.1 0.1-0.2 0-0.3-0.1-0.2-0.2-0.4-0.6-0.3-0.2 0-0.3-0.2-0.3-0.4 0-0.2 0.2-0.1 0.4-0.1 0.3 0 0.6-0.1 0.8-0.4 0.1-0.3 0.1-0.7 0.4-1 0.2-0.2 0.2-0.6-0.2-0.7-0.4 0-0.4-0.1-0.2-0.3q0.2-0.2 0-0.5-0.3-0.5 0.2-0.9c0.2-0.1 0.2-0.3 0.2-0.5 0.1-0.5 0.1-0.9 0-1.4-0.1-0.6-0.2-1.1-0.5-1.6-0.1-0.3-0.1-0.5 0.2-0.7 0.3-0.2 0.3-0.4 0.3-0.6 0-0.4 0-0.8 0-1.1 0.1-0.5 0-0.8-0.5-0.9-0.3 0-0.4-0.2-0.3-0.6 0.1-0.8 0.1-1.6 0.5-2.4 0-0.1 0-0.3-0.1-0.3-0.4-0.5 0-0.9 0.2-1.3 0.1-0.1 0.4-0.3 0.3-0.4-0.4-0.6 0-1.4-0.6-1.9-0.4-0.4-0.1-1.1 0.4-1.1 0.7 0 0.5-0.5 0.6-0.9 0-0.1 0-0.2 0-0.4 0.2-0.9 0.2-1.9-0.7-2.6-0.4-0.4-0.5-0.9 0-1.2 0.4-0.3 0.7-0.8 1-1.1 0.4-0.4 0.5-0.8 0.1-1.3-0.4-0.5-0.4-1.5 0.1-1.8 0.4-0.2 0.4-0.4 0-0.6-0.3-0.2-0.2-0.4-0.2-0.6 0.2-0.7 1-1.4 0-2 0.7-0.4 0-0.9 0.2-1.2 0.2-0.7 0.6-1.2 0-1.8-0.2-0.2-0.2-0.5 0.1-0.6 0.2-0.1 0.5-0.1 0.6 0.1 0.3 0.6 0.7 1.1 0.8 1.8 0.1 1-0.2 2.1 0 3 0.1 0.7-0.1 1.3 0.4 1.9 0.1 0.1 0.2 0.3 0.3 0 0.2-0.4 0.5-0.3 0.7-0.1 0.2 0.1 0.4 0.3 0.1 0.7-0.3 0.3-0.6 0.7-0.4 1.3 0.2 0.6 0 0.9-0.8 1.1q-0.2 0-0.3 0.2c0 0.2 0.1 0.2 0.2 0.3 0.9 0.6 1.1 1.4 0.5 2.3-0.2 0.3 0 0.2 0.2 0.2 0.5 0.1 0.7 0.4 0.6 0.8-0.2 0.4-0.5 0.3-0.8 0.1-0.4-0.3-0.7-0.1-0.6 0.3 0 0.3 0.2 0.6-0.1 0.7-0.5 0.3-0.4 0.8-0.3 1.1 0 0.6 0.6 1.1-0.1 1.6q0 0.1 0 0.1c0.5 0.7 0 1.4 0 2.1-0.1 0.8 0.1 1.6 0.4 2.4 0.1 0.1 0.2 0.3 0.3 0.3 0.8 0.1 0.6 0.5 0.4 0.9-0.1 0.4-0.3 0.9 0.1 1.4 0.2 0.1 0.2 0.3 0 0.5q-0.3 0.2-0.2 0.5c0.2 0.8 0.3 1.7 0.1 2.5-0.1 0.4 0 0.9-0.1 1.3-0.1 0.3 0 0.7 0.3 1 0.2 0.3 0.3 0.6 0.2 1-0.1 0.2-0.1 0.4 0 0.7 0.5 0.8 0.2 1.6-0.1 2.5 0 0.2 0 0.3 0.1 0.5 0 0.1 0 0.2 0.2 0.2 0.2 0 0.1-0.2 0.2-0.3 0-0.1-0.1-0.2 0.1-0.2 0.2 0 0.2 0.1 0.2 0.2q0.1 0.2 0.1 0.3c0.2 0.3 0.2 0.7 0 0.9-0.2 0.3-0.4-0.2-0.7-0.2 0 0-0.1 0-0.2 0-0.1 0.1 0.1 0.2 0.1 0.3 0.7 0.2 0.7 0.6 0.7 1.1-0.1 0.2 0.1 0.4 0.3 0.5 0.8 0.1 1.4 0.4 1.5 1.3 0.1 0.1 0.3 0.2 0.4 0.4 0.1 0.1 0.2 0.3-0.1 0.4-0.6 0.2-0.5 0.6-0.2 1 0.2 0.3 0.1 0.5 0 0.8-0.1 0.4-0.5 0.8 0 1.2 0.3 0.2 0 0.5-0.2 0.6q-0.6 0.4-0.4 1c0.3 0.8 0.1 1.5-0.2 2.2-0.2 0.6-0.2 1.2-0.6 1.7 0 0 0 0.1 0 0.2 0.5 0.5-0.1 0.8-0.4 1.1-0.4 0.2-0.3 0.2-0.1 0.6 0 0.2 0.2 0.5-0.2 0.6-0.3 0.2-0.3 0.2 0 0.5 0.5 0.3 0.5 0.8 0 1.2-0.1 0.1-0.1 0.2 0 0.3 0.6 0.8-0.1 1.5-0.4 2.1-0.3 0.5-0.5 0.9-0.1 1.5 0.3 0.3 0.2 0.8-0.4 0.9-0.4 0.1-0.4 0.3-0.3 0.6 0.1 0.3 0.4 0.6 0.3 1-0.2 0.5-0.1 1 0.1 1.5 0.1 0.4 0.1 0.8 0 1.2-0.1 0.4-0.2 0.7 0.4 0.9 0.2 0.1 0.2 0.3 0.2 0.5 0 0.5-0.8 1.3-1.4 1.2-0.5 0-0.7 0.1-0.7 0.6 0.1 0.6 0.3 0.8 1.2 0.9 0.3 0.1 0.6-0.1 0.6 0.3 0 0.2 0 0.5-0.3 0.7-0.9 0.4-1.3 1.1-1.2 2.1 0.1 0.6-0.1 1.2 0.3 1.7 0 0.1-0.2 0.2-0.2 0.3-0.5 0.8-0.4 1.4 0.4 2 0.1 0.1 0.2 0.1 0.3 0.2 0.1 0.2 0.4 0.5-0.2 0.4-0.3-0.1-0.4 0.1-0.5 0.3-0.1 0.7 0 1.6-0.4 2.3 0 0 0 0.1 0.1 0.1 0.1 0.7 0.2 1.4-0.3 2-0.1 0.1-0.1 0.2-0.1 0.3 0 1 0.3 2 0.4 3 0 0.3 0.1 0.6 0.5 0.3 0.3-0.2 0.4-0.1 0.5 0.1 0.2 0.2 0.3 0.5 0.2 0.8-0.1 0.6-0.9 1.2 0 1.8 0.1 0.1-0.1 0.3-0.1 0.4q-0.3 0.2-0.5 0.4c-0.2 0.3-0.4 0.5 0.2 0.5 0.5 0.1 0.9 0.8 0.7 1.2-0.4 0.8-0.3 2 0.5 2.5 0.5 0.4 0.8 1.5 0.5 2-0.3 0.6-0.7 1.1-0.8 1.7-0.1 1.3 0 2.6-0.2 3.9 0 0.1 0.1 0.3-0.1 0.3-0.2 0-0.3-0.1-0.3-0.3-0.1-0.1 0.1-0.2 0.1-0.3 0-0.2 0-0.3-0.2-0.4-0.2 0-0.4 0.2-0.3 0.4 0.2 0.3 0 0.5-0.2 0.8-0.1 0.1 0 0.3 0.1 0.4 0.2 0.2 0.1 0.4 0 0.6-0.3 0.5-0.6 1.1-0.2 1.5 0.3 0.5 0.3 0.8 0 1.2-0.2 0.5-0.2 0.8 0.1 1.3 0.2 0.4 0.3 0.9 0.5 1.4 0.1 0.3 0 0.5-0.4 0.6-0.2 0-0.4 0.2-0.6 0.2-0.3 0.1-0.3 0.3-0.1 0.4 0.5 0 0.3 0.4 0.4 0.7 0.2 0.4 0.2 1 0.6 1.3 0.4 0.2 0.4 0.5 0.6 0.8 0.3 0.5 0.1 0.7-0.3 0.7-0.6 0.1-0.5 0.4-0.6 0.7 0 0.4 0.2 0.7 0.4 1 0.2 0.4 0.6 0.8-0.2 1.1-0.1 0-0.2 0.3-0.2 0.4 0 0.9-0.3 1.8 0 2.6 0.1 0.5 0.1 1 0.2 1.5 0 0.4-0.1 0.9 0 1.3 0.2 0.4 0.6 0.5 0.9 0.8 0.3 0.3-0.5 0.6 0 1 0.2 0.2 0.3 0.6 0.6 0.9q0.4 0.2 0.1 0.5c-0.8 0.8-0.7 1.5 0.4 2.2 0.1 0.1 0.3 0.2 0.2 0.4-0.5 1-0.1 2.2-0.5 3.3-0.1 0.2 0 0.5-0.5 0.5-0.3 0-0.1 0.2 0 0.3 0.5 0.7 0.6 1.6 0.8 2.4 0.1 0.6-0.2 1.2 0.5 1.7 0.1 0 0.1 0.3 0.1 0.4-0.3 0.4 0 0.5 0.2 0.6 0.3 0.2 0.6 0.4 0.3 0.7-0.4 0.3-0.7 0.6-0.3 1.1 0 0-0.1 0.2-0.2 0.2-0.3 0.8 0 1.6-0.3 2.4 0 0 0.1 0.2 0.1 0.2 0.9 0.2 0.5 0.7 0.4 1.1-0.1 0.6-0.3 1.2-0.5 1.8-0.1 0-0.2 0.1-0.2 0.2-0.3 0.4-0.7 1-0.7 1.3 0.2 1.1-0.7 2.1-0.1 3.1 0.1 0.1 0 0.2-0.1 0.3q-0.1 0.6-0.2 1.2c0 0.5 0.2 1-0.1 1.5-0.5 0.7-0.2 1.3 0.1 1.9 0.1 0.3 0.2 0.5 0.4 0.8 0 0.3 0.1 0.5-0.2 0.7-0.6 0.3-0.6 0.9-0.6 1.4-0.1 0.7 0 0.7 0.8 0.8 0.3 0 0.6 0.2 0.8 0.4 0.2 0.3-0.2 0.4-0.3 0.5-0.2 0.2-0.3 0.5-0.3 0.8 0 0.9 0.2 1.9-0.6 2.7q-0.1 0.1-0.1 0.2c0 0.8-0.4 1.5 0.1 2.3 0.1 0.2 0.1 0.4 0 0.6-0.3 0.6 0.1 1.3-0.2 2-0.2 0.3-0.4 0.8-0.3 1.2 0.3 0.7 0 1.4-0.1 2 0 0.6-0.1 1.3 0.5 1.8 0.5 0.4 0.4 0.9 0.3 1.3-0.1 0.5-0.2 1-0.5 1.3-0.2 0.5-0.2 0.8 0 1.3 0.2 0.3 0.3 0.8 0.1 1.2 0 0.3 0 0.4 0.2 0.6 0.6 0.6 0.4 0.9-0.4 1-0.1 0-0.4-0.1-0.4 0.2 0 0.1 0.2 0.2 0.4 0.3 0.8 0.3 1 0.9 0.6 1.7-0.2 0.3-0.7 0.6-0.1 1.1 0.1 0.1-0.1 0.3-0.2 0.5-0.2 0.4-0.9 0.7-0.3 1.2 0 0-0.1 0.2-0.1 0.2-0.4 0.2-0.3 0.5-0.3 0.7 0 0.4 0.2 0.8 0.1 1.2-0.3 0.8-0.2 1.7-0.4 2.5-0.1 0.5 0.2 0.7 0.7 0.5 0.2 0 0.5-0.1 0.6 0.1 0.2 0.3-0.1 0.3-0.3 0.4-0.7 0.6-0.7 0.7-0.4 1.5 0.2 0.5 0.3 1-0.1 1.4-0.2 0.3-0.3 0.7-0.2 1 0 0.7 0.3 1.4-0.1 2.1-0.2 0.2 0 0.3 0.2 0.5 0.7 0.3 0.8 0.7 0.2 1.1-1.1 0.7-0.3 1.8-0.6 2.7 0 0 0.1 0.1 0.2 0.2 0.7 0.7 0.6 0.9-0.3 1.2q-0.1 0.1-0.2 0.2c-0.1 0 0 0.1 0.1 0.1 0.7 0.1 0.4 0.4 0.2 0.8-0.2 0.6-0.5 1.3 0 1.9 0.3 0.4 0.3 0.5 0.1 0.9-0.2 0.6-0.5 1.2-0.3 1.9 0.1 0.3 0.7 0.4 0.5 0.8-0.1 0.2-0.6 0.3-0.7 0.7 0 0-0.1 0.1-0.2 0.1-0.2 0.3-0.2 0.5 0.3 0.5 0.2-0.1 0.3 0 0.4 0.2 0.1 0.2-0.1 0.2-0.2 0.3-0.4 0.3-0.9 0.6-0.2 1 0.1 0.1-0.1 0.2-0.2 0.3-0.1 0.1-0.3 0.2-0.2 0.4 0 0.4-0.2 0.7-0.7 0.9-0.2 0.1-0.3 0.5 0.2 0.5 0.5 0 0.5 0.2 0.5 0.5 0 0.5 0 0.9 0.6 1.1 0.2 0 0.3 0.2 0.2 0.3-0.2 0.4 0.1 1.1-0.7 1.4-0.3 0-0.3 0.3 0.1 0.4 0.3 0 0.6 0.1 0.6 0.4 0 0.5 0.3 0.9 0 1.4-0.2 0.2-0.2 0.6 0 0.8 0.3 0.6 0.9 1.1 0.7 1.9q0 0.1 0 0.1c0.6 0.8 0.6 1.9 1.4 2.7 0.2 0.2 0.1 0.6-0.2 0.7-0.8 0.2-0.8 1-1.2 1.5-0.4 0.5-0.1 0.9 0.3 1.3 0.3 0.4 0.6 0.8 0.2 1.2-0.3 0.3-0.7 0.5 0 0.9 0.2 0.1 0 0.3-0.2 0.4-0.4 0.5-0.5 1.1-0.9 1.6 0.6 0.9-0.1 1.6-0.3 2.4-0.1 0.6-0.3 1.3 0.1 1.9 0.1 0.1 0 0.2 0.1 0.3 0.1 0.5 0 1 0.1 1.5 0 0.3 0 0.6-0.2 0.9-0.5 0.7-0.4 1.1 0.2 1.7 0.3 0.2 0.1 0.3-0.1 0.5-0.2 0.3-0.6 0.6-0.5 1 0.3 0.8-0.1 1.5 0 2.3 0.2 0.8-0.6 1.6 0.1 2.5 0 0 0 0.1-0.1 0.1-0.5 0.4-0.5 1.1-0.8 1.5q-0.4 0.5-0.9 0.3c-0.3-0.2-0.1-0.4 0-0.7zm2-110.2c0.3-0.1 0.4-0.4 0.3-0.6-0.2-0.5-0.2-1.1-0.4-1.6-0.1-0.2-0.2-0.4-0.4-0.4 0 0 0 0.3-0.1 0.4q0.1 0.5 0.2 0.9c0 0.2 0.2 0.4-0.1 0.5-0.2 0.1-0.5 0.1-0.2 0.4 0.2 0.1 0.3 0.5 0.7 0.4zm-0.2 212.2c0.4 0 0.2-0.6 0.2-0.9 0-0.4-0.3-0.9 0.3-1.2 0.1-0.1 0.1-0.2 0.1-0.2-0.4-0.8 0.1-1.7-0.4-2.5-0.1-0.3-0.1-0.5 0.1-0.7 0.3-0.5 0.2-1 0-1.5-0.3-0.5-0.2-0.9 0.3-1.2 0.5-0.2 0.9-0.5 0.5-1-0.1-0.2-0.1-0.5 0-0.8 0-0.3 0.1-0.5-0.3-0.6-0.3 0-0.3-0.2-0.1-0.5 0.2-0.5 0.1-0.9-0.1-1.4-0.4-1-0.3-2.1 0-3.1 0.2-0.8 0.8-1.6-0.1-2.3 0-0.1 0-0.1 0-0.1 0.6-0.4-0.1-0.9 0.2-1.3 0.3-0.4 0.1-0.8 0-1.2-0.2-0.9-1-1.8-0.8-2.8 0-0.2 0-0.4 0.1-0.7 0.2-0.4 0.3-0.7-0.1-1.1q-0.3-0.2-0.2-0.6c0.3-0.7 0.1-1.5-0.2-2.2 0-0.2-0.1-0.3 0-0.4 0.6-0.5 0.4-1.2 1-1.7 0.1 0 0.2-0.1 0.1-0.2-0.1-0.6 0.2-1.1 0.2-1.6 0-0.4-0.1-0.8 0.2-1.2 0.1-0.3 0-0.6-0.2-0.9-0.3-0.4-0.5-0.9-0.3-1.4 0.2-0.5 0.2-1.1-0.3-1.5-0.5-0.4-0.4-0.8 0.1-1.2 0.4-0.3 0.6-0.7 0.3-1.2-0.3-0.5-0.5-1-0.2-1.5q0-0.1 0-0.1c-0.4-0.8-0.2-1.6 0-2.4 0.2-0.8 0.4-1.6 0.3-2.4 0-0.2 0.2-0.3 0.4-0.5 0.5-0.5 0.4-0.8-0.3-1.1-0.1-0.1-0.5-0.2-0.4-0.4 0.5-0.8-0.1-1.3-0.5-1.8-0.4-0.4-0.4-0.7-0.2-1.1 0.3-1 0.7-1.9 0.5-2.9 0-0.1 0-0.3 0.1-0.3 0.7-0.3 0.4-0.8 0.3-1.3 0-0.3-0.2-0.8 0.6-0.7 0.4 0 0.2-0.5 0.2-0.7 0-0.2-0.2-0.5-0.5-0.3-0.7 0.3-0.7-0.2-0.7-0.5 0-0.8 0-1.6 0-2.6-0.1-0.8 0.1-1.8-0.2-2.8-0.1-0.2 0-0.4 0-0.6 0.2-0.6 0.2-1.2 0.2-1.7 0-0.9-0.4-1.8-0.3-2.7 0-0.4 0-0.9 0.5-1.3 0.2-0.2 0.2-0.6 0.1-0.9-0.2-0.2-0.2-0.5 0-0.7 0.5-0.4 0.5-0.7 0.2-1.2q-0.4-0.4-0.1-1c0.2-0.5 0.1-1.1-0.1-1.6-0.2-0.3-0.3-0.6-0.3-1 0.1-0.5 0.1-1.1-0.1-1.6-0.2-0.6 0.3-1.1 0.3-1.6 0-0.2 0.3-0.1 0.5-0.1 0.4 0.1 0.6 0 0.5-0.5-0.2-0.7-0.1-1.4-0.6-2.1 0-0.1 0-0.2-0.1-0.3-1-0.9-0.4-1.9-0.4-3 0-0.1 0-0.3-0.1-0.5-0.5-0.8-0.4-1.8-0.6-2.7 0-0.4-0.2-0.6-0.4-0.8-0.1-0.1-0.1-0.3-0.3-0.2-0.1 0-0.1 0.1-0.1 0.2q0 0.4-0.4 0.3c0 0-0.1 0-0.1 0-0.1 0.2-0.2 1.5-0.1 1.6 0.1 0.4 0.9 0.8 0.3 1.3-0.1 0.1 0 0.3 0.1 0.5 0.2 0.2 0.2 0.4-0.2 0.5-0.3 0.1-0.2 0.3-0.2 0.5 0.3 1 0.3 2-0.2 2.9-0.3 0.6-0.1 1 0.3 1.5 0.5 0.5 0.6 1.1 0.2 1.7-0.1 0.2-0.1 0.3 0.1 0.4 0.5 0.3 0.3 0.5-0.1 0.7q-0.1 0-0.1 0.1c-0.5 0.4-0.5 0.6 0.1 0.9 0.4 0.1 0.8 0.3 0.1 0.6-0.3 0.1-0.2 0.3-0.2 0.5 0.1 0.2 0.2 0.4 0.1 0.7-0.4 0.8-0.2 1.5 0.1 2.3 0.3 0.8 0.3 1.7-0.2 2.6-0.1 0.2-0.2 0.4 0.2 0.5 0.4 0.1 0.3 0.4 0.1 0.7-0.4 0.5-0.4 1.1-0.3 1.7 0.1 0.2 0 0.4-0.1 0.5q-0.4 0.4-0.1 0.8c0.2 0.3 0.1 0.5 0.1 0.7-0.1 0.7-0.5 1.2-0.7 1.9 0 0.2 0.1 0.4 0.3 0.6 0.2 0.2 0.4 0.5 0.2 0.8-0.4 0.4-0.2 0.7 0 1.1 0.2 0.5 0.4 0.9-0.1 1.4-0.2 0.1-0.2 0.3 0 0.5 0.6 0.7 0.3 1.5 0.2 2.2 0 0.6-0.4 1.3 0.2 1.9 0 0.1 0 0.2 0 0.2-0.2 0.9 0 1.7 0.1 2.5 0 0.7-0.3 1.5-0.3 2.2 0 0.3-0.1 0.5 0.1 0.7 0.2 0.2 0.1 0.4 0.1 0.5 0.3 1-0.3 1.8-0.5 2.7 0 0.3 0 0.5-0.1 0.8-0.4 0.8-0.2 1.5 0.4 2.1 0.2 0.3 0.2 0.6 0.2 1-0.3 1.1-0.2 2.3-0.1 3.5 0.2 0.9 0.6 1.9 0 2.8-0.1 0.2-0.1 0.4-0.2 0.6-0.4 0.3-0.2 0.5 0.2 0.6 0.6 0 0.5 0.3 0.2 0.5-0.5 0.2-0.6 0.4-0.2 0.8 0.2 0.4-0.2 0.9-0.4 1.3-0.2 0.5-0.3 1 0.2 1.4 0.1 0.2 0.2 0.3 0.2 0.6 0 0.7 0.1 1.3 0.3 2 0.1 0.6 0.3 1.3 0.3 2-0.1 0.1 0 0.2-0.1 0.3-0.8 0.8-0.6 1.5-0.1 2.3 0.3 0.5 0.2 1 0 1.4-0.3 0.9-0.7 1.8-0.3 2.7q0.3 0.7 0.3 1.4c0.1 0.3 0.2 0.7-0.2 1-0.1 0.1-0.1 0.3 0.1 0.4 0.4 0.3 0.1 0.5-0.2 0.6-0.3 0.1-0.7-0.1-0.8 0.3-0.1 0.4 0.2 0.8 0.4 1 0.5 0.3 0.6 0.6 0.2 1-0.2 0.2-0.1 0.5-0.1 0.8 0.2 0.8 0.1 1.6-0.3 2.3-0.1 0.2 0 0.4 0.1 0.6 0.3 0.4 0.2 0.7 0.2 1.1 0.1 0.7 0.1 1.2-0.7 1.6-0.1 0.1-0.2 0.4-0.1 0.6 0.1 0.3 0.3 0.3 0.6 0.2 0.3-0.2 0.3 0 0.3 0.2 0 0.5 0.1 1 0.3 1.4 0.3 0.6-0.1 1.2-0.4 1.7-0.2 0.4 0.2 0.4 0.3 0.4 0.9-0.3 0.9 0.3 1.1 0.8 0.1 0.2 0.1 0.8 0.5 0.7zm0.5-344.7c0.4-0.1 0.7-0.4 0.5-0.9-0.1-0.3 0.1-0.6-0.3-0.8q-0.2-0.2 0.1-0.4c0.5-0.2 0.4-0.4 0.1-0.7-0.1-0.2-0.5-0.2-0.3-0.6 0.1-0.3-0.1-0.8 0.3-1 0.7-0.5 0.6-1.2 0.6-1.9 0-0.2-0.1-0.5 0.2-0.6 0.2-0.1 0.2 0.1 0.3 0.2q0.2 0.2 0.4 0c0.1-0.2 0-0.4-0.2-0.4-0.2-0.1-0.4 0-0.5-0.1-0.1-0.2-0.3-0.4 0-0.5 0.7-0.2 0.6-0.8 0.6-1.3 0-0.1 0-0.2 0.1-0.3 0.3-0.5 0.4-1 0.3-1.6-0.1-0.6 0.1-1.3-0.6-1.8 0-0.1-0.1-0.2 0-0.2 0.4-0.4 0.4-0.9 0.5-1.4 0-0.2 0.2-0.4 0.1-0.5-0.1-0.3-0.4-0.6-0.1-0.8-0.6-0.7-0.3-1.2 0.3-1.8 0.1-0.2 0-0.5-0.2-0.7-0.3-0.3-0.3-0.6 0-0.9 0.3-0.3 0.3-0.5 0.2-0.8-0.4-0.9-0.8-1.8-1.4-2.6 0.1-1.2-1.2-1.2-1.8-1.8-0.5-0.5-0.9-0.5-1.4-0.1-0.3 0.2-0.5 0.4-0.3 0.7 0.1 0.3 0.2 0.5 0.3 0.7 0.2 0.4 0.2 0.7-0.2 0.9-0.4 0.2-0.6 0.7-1.1 0.9-0.3 0.1-0.2 0.5 0.3 0.5 0.2 0 0.5 0 0.4 0.3-0.4 0.6 0.1 0.7 0.4 1 0.2 0.1 0.4 0.1 0.5 0.3 0.1 0.4 0.3 0.7-0.4 0.6-0.4-0.1-0.4 0-0.2 0.4 0.3 0.5 0.1 1.2 0.3 1.7 0 0.1 0 0.2-0.1 0.2-0.6 0.2-0.3 0.6-0.2 0.9 0.2 0.4 0.4 0.8-0.1 1.3-0.1 0.2-0.4 0.9 0.5 1 0.1 0 0.5 0.3 0.4 0.4-0.4 0.5-0.1 1-0.3 1.5-0.2 0.7-0.1 1.5-0.1 2.2 0 0.2 0.3 0.8-0.4 0.4-0.2-0.1-0.3 0-0.3 0.1q0 0.4-0.4 0.7c-0.3 0.1-0.1 0.2 0 0.3q0.7 0.4 0.2 1c-0.1 0.2-0.3 0.4-0.2 0.5 0.3 0.2 0.4-0.1 0.6-0.2 0.2-0.1 0.4-0.2 0.4 0.1-0.1 0.7 0.4 1.4 0.4 2.1 0 0.1 0.1 0.3-0.1 0.3-0.2 0-0.2-0.1-0.4-0.2-0.1-0.1 0.2-0.3 0-0.3-0.1 0.2-0.4 0.3-0.3 0.5 0.3 0.7 0.7 1.3 0.5 2 0 0.2 0.1 0.3 0.4 0.3 0.7-0.2 1 0 1.1 0.7 0.1 0.2 0.1 0.6 0.6 0.5zm-0.5 375.7c0.3-0.4 0.6-0.6 0.6-1.2-0.7-0.4 0-1.2-0.6-1.8-0.3-0.4 0-0.7 0.6-0.8 0.3 0 0.4-0.1 0.4-0.4 0-0.4 0.3-0.9 0.1-1.3-0.1-0.3 0.1-0.5 0.3-0.7 0.6-0.9 0.3-1.9 0.6-2.9 0.1-0.1 0-0.3-0.2-0.4-0.2-0.1-0.4-0.3-0.2-0.6 0.1-0.2 0-0.4-0.2-0.5-0.7-0.4-0.9-0.8-0.5-1.4 0.2-0.4 0.2-0.5-0.1-0.8-0.7-0.6-0.4-1.9 0.4-2.3 0.5-0.3 0.4-0.8 0.2-1.2-0.3-0.8 0.1-1.5 0.4-2.2 0.1-0.1 0.3-0.2 0.2-0.4-0.2-0.5-0.1-1 0-1.5 0.1-0.3 0.2-0.8-0.3-1.1-0.2-0.1-0.2-0.4-0.2-0.6 0.1-0.3 0.1-0.7-0.1-0.9-0.1-0.3-0.1-0.5 0.1-0.7 0.4-0.4 0.4-0.7 0-1.1q-0.3-0.2-0.1-0.6c0-0.1 0.1-0.2 0.1-0.4-0.2-0.7-0.1-1.2 0.5-1.7 0.5-0.4 0.2-0.7-0.4-0.8-0.3 0-0.5-0.3-0.7-0.5-0.5-0.4-0.9-0.3-1.3 0.2-0.4 0.6-0.8 1.3-1.1 2-0.3 0.4 0 0.8 0 1.1 0.1 0.4 0.1 0.7 0.6 0.7 0.1 0 0.3 0.1 0.2 0.2 0 0.2-0.1 0.2-0.3 0.2-0.7-0.1-0.7 0.1-0.4 0.6 0.4 0.8 0.3 1.6 0.2 2.4 0 0.6 0 1.2-0.8 1.5-0.2 0.1-0.3 0.5 0.2 0.5 0.5 0 0.5 0.2 0.3 0.4-0.3 0.4-0.6 0.7-0.9 0.9-0.3 0.2-0.2 0.4 0.1 0.5q0.2 0.1 0.3 0.2c0.8 0.3 0.7 0.3 0.6 1.1-0.2 0.8-0.4 1.6-0.5 2.4 0 0.2 0 0.4 0.3 0.4 0.2 0.1 0.4 0 0.4-0.2 0.1-0.1 0.2-0.3 0.3-0.2 0.2 0 0.1 0.2 0 0.3q-0.1 0.2-0.1 0.4c0 0.3-0.1 0.4-0.5 0.3-0.6-0.3-0.6 0.1-0.4 0.4 0.2 0.5 0.1 1.1 0.3 1.6 0.2 0.7 0.4 1.1-0.2 1.8-0.2 0.3-0.5 1.1 0.2 1.5-0.2 0.8 0.2 1.6-0.1 2.3-0.2 0.6-0.4 1.2 0 1.8q0.3 0.5 0 0.9c-0.1 0.3-0.2 0.6 0.1 0.9 0.3 0.3 0.2 0.6 0.2 0.9-0.1 0.5-0.1 0.8 0.7 0.8 0.2-0.1 0.5 0.3 0.7 0zm-1.1-120.4c0.4 0 0.7 0.5 1.1 0.2 0.4-0.2 0.1-0.7 0.3-0.9 0.5-0.3 0.2-0.6 0-1-0.1-0.1-0.3-0.3-0.2-0.4 0.3-0.9-0.1-1.8 0.2-2.6 0.2-0.4 0-0.9 0.1-1.3 0-0.5 0-0.9 0.3-1.4 0.2-0.4 0.1-0.6-0.5-0.5-0.4 0.1-0.6 0.1-0.4-0.4 0.2-0.7 0.3-1.4 0.4-2.1q0-0.3-0.1-0.6c-0.1-0.5-1-0.7-1.4-0.2-0.3 0.4-0.4 1-0.6 1.4 0 0.3 0 0.4 0 0.5 0.6 0.4 0.4 0.8 0.1 1.3q-0.1 0.2 0.1 0.3c0.2 0.2 0.2 0.3-0.1 0.5-0.2 0.1-0.1 0.5 0 0.6 0.5 0.8 0.2 1.7 0.4 2.4 0.2 0.9 0 1.6 0 2.4 0 0.2-0.1 0.4-0.3 0.6-0.4 0.5-0.1 1.2 0.6 1.2zm-3.3-60.4c-0.1 0-0.2 0.1-0.2 0.2 0 0.2 0.2 0.2 0.3 0.1 0.2 0 0.1-0.3-0.1-0.3z"/></svg>